# Blender v2.80 (sub 75) OBJ File: 'Azul.blend'
# www.blender.org
mtllib PatternStrip_Col.mtl
o Cube
v -0.400000 0.000000 2.200000
v -0.400000 0.100000 2.200000
v -0.400000 0.000000 -2.800000
v -0.400000 0.100000 -2.800000
v 0.400000 0.000000 2.200000
v 0.400000 0.100000 2.200000
v 0.400000 0.000000 -2.800000
v 0.400000 0.100000 -2.800000
vt 0.375000 0.000000
vt 0.625000 0.000000
vt 0.625000 0.250000
vt 0.375000 0.250000
vt 0.625000 0.500000
vt 0.375000 0.500000
vt 0.625000 0.750000
vt 0.375000 0.750000
vt 0.625000 1.000000
vt 0.375000 1.000000
vt 0.125000 0.500000
vt 0.125000 0.750000
vt 0.875000 0.500000
vt 0.875000 0.750000
vn -1.0000 0.0000 0.0000
vn 0.0000 0.0000 -1.0000
vn 1.0000 0.0000 0.0000
vn 0.0000 0.0000 1.0000
vn 0.0000 -1.0000 0.0000
vn 0.0000 1.0000 0.0000
usemtl None
s off
f 1/1/1 2/2/1 4/3/1 3/4/1
f 3/4/2 4/3/2 8/5/2 7/6/2
f 7/6/3 8/5/3 6/7/3 5/8/3
f 5/8/4 6/7/4 2/9/4 1/10/4
f 3/11/5 7/6/5 5/8/5 1/12/5
f 8/5/6 4/13/6 2/14/6 6/7/6
o Cube.001
v 0.391343 0.000000 2.509656
v 0.391343 0.100000 2.509656
v 0.003000 0.000000 2.183507
v 0.003000 0.100000 2.183507
v 0.391343 0.000000 1.740324
v 0.391343 0.100000 1.740324
vt 0.375000 0.000000
vt 0.625000 0.000000
vt 0.625000 0.250000
vt 0.375000 0.250000
vt 0.625000 0.500000
vt 0.375000 0.500000
vn -0.6431 0.0000 0.7658
vn -0.7521 0.0000 -0.6590
vn 0.0000 -1.0000 0.0000
vn -1.0000 0.0000 0.0000
vn 0.0000 1.0000 0.0000
usemtl None
s off
f 9/15/7 10/16/7 12/17/7 11/18/7
f 11/18/8 12/17/8 14/19/8 13/20/8
f 11/18/9 13/20/9 9/15/9
f 9/15/10 10/16/10 14/19/10 13/20/10
f 12/17/11 10/16/11 14/19/11
o Cube.002
v -0.386634 0.000000 2.509656
v -0.386634 0.100000 2.509656
v 0.000625 0.000000 2.184952
v 0.000625 0.100000 2.184952
v -0.386634 0.000000 1.740324
v -0.386634 0.100000 1.740324
vt 0.375000 0.500000
vt 0.625000 0.500000
vt 0.625000 0.750000
vt 0.375000 0.750000
vt 0.625000 1.000000
vt 0.375000 1.000000
vt 0.000000 0.000000
vt 0.000000 0.000000
vt 0.000000 0.000000
vn 0.7541 0.0000 -0.6568
vn 0.6425 0.0000 0.7663
vn 0.0000 -1.0000 0.0000
vn 0.0000 1.0000 0.0000
vn -1.0000 0.0000 0.0000
usemtl None
s off
f 19/21/12 20/22/12 18/23/12 17/24/12
f 17/24/13 18/23/13 16/25/13 15/26/13
f 17/24/14 15/26/14 19/21/14
f 20/27/15 16/28/15 18/29/15
f 15/26/16 16/28/16 20/22/16 19/21/16
