<?xml version="1.0" encoding="UTF-8"?>
<svg xmlns="http://www.w3.org/2000/svg" viewBox="0 0 26 26" enable-background="new 0 0 26 26">
    <path d="M 3 5.5 C 1.3 5.5 0 6.8 0 8.5 L 0 16.5 C 0 17.1 0.4 17.5 1 17.5 L 1.28125 17.5 C 1.1104918 17.794544 1 18.135035 1 18.5 C 1 19.604569 1.8954305 20.5 3 20.5 C 3.7396043 20.5 4.3727074 20.096896 4.71875 19.5 L 6.28125 19.5 C 6.6272926 20.096896 7.2603957 20.5 8 20.5 C 9.1045695 20.5 10 19.604569 10 18.5 C 10 18.135035 9.8895082 17.794544 9.71875 17.5 L 16.28125 17.5 C 16.110492 17.794544 16 18.135035 16 18.5 C 16 19.604569 16.895431 20.5 18 20.5 C 18.739604 20.5 19.372707 20.096896 19.71875 19.5 L 21.28125 19.5 C 21.627293 20.096896 22.260396 20.5 23 20.5 C 24.104569 20.5 25 19.604569 25 18.5 C 25 18.135035 24.889508 17.794544 24.71875 17.5 L 25 17.5 C 25.6 17.5 26 17.1 26 16.5 L 26 8.5 C 26 6.8 24.7 5.5 23 5.5 L 3 5.5 z M 3 7.5 L 5 7.5 C 5.6 7.5 6 7.9 6 8.5 L 6 11.5 C 6 12.1 5.6 12.5 5 12.5 L 3 12.5 C 2.4 12.5 2 12.1 2 11.5 L 2 8.5 C 2 7.9 2.4 7.5 3 7.5 z M 9 7.5 L 11 7.5 C 11.6 7.5 12 7.9 12 8.5 L 12 11.5 C 12 12.1 11.6 12.5 11 12.5 L 9 12.5 C 8.4 12.5 8 12.1 8 11.5 L 8 8.5 C 8 7.9 8.4 7.5 9 7.5 z M 15 7.5 L 17 7.5 C 17.6 7.5 18 7.9 18 8.5 L 18 11.5 C 18 12.1 17.6 12.5 17 12.5 L 15 12.5 C 14.4 12.5 14 12.1 14 11.5 L 14 8.5 C 14 7.9 14.4 7.5 15 7.5 z M 21 7.5 L 23 7.5 C 23.6 7.5 24 7.9 24 8.5 L 24 11.5 C 24 12.1 23.6 12.5 23 12.5 L 21 12.5 C 20.4 12.5 20 12.1 20 11.5 L 20 8.5 C 20 7.9 20.4 7.5 21 7.5 z M 4.71875 17.5 L 6.28125 17.5 C 6.1104918 17.794544 6 18.135035 6 18.5 L 5 18.5 C 5 18.135035 4.8895082 17.794544 4.71875 17.5 z M 19.71875 17.5 L 21.28125 17.5 C 21.110492 17.794544 21 18.135035 21 18.5 L 20 18.5 C 20 18.135035 19.889508 17.794544 19.71875 17.5 z"/>
</svg>